<svg width="176" height="71" viewBox="0 0 176 71" fill="none" xmlns="http://www.w3.org/2000/svg">
<path fill-rule="evenodd" clip-rule="evenodd" d="M24.041 34.955C25.008 34.955 25.423 35.922 25.423 37.442V47.942C25.423 53.469 22.659 53.608 21.554 53.055C20.172 52.364 19.896 50.014 19.896 47.805V37.442C19.896 35.922 20.449 34.955 21.416 34.955V34.402H15.751V34.955C16.718 34.955 17.133 35.922 17.133 37.442V48.911C17.133 50.983 18.377 54.3 21.278 54.575C24.179 54.714 26.114 52.917 26.114 47.805V37.442C26.114 35.922 26.666 34.955 27.495 34.955V34.402H24.041V34.955Z" fill="black"/>
<path fill-rule="evenodd" clip-rule="evenodd" d="M34.127 34.402H28.738V34.955C29.705 34.955 30.258 35.922 30.258 37.442V50.983C30.258 52.503 29.706 53.469 28.738 53.469V54.022H34.541C35.785 54.022 37.028 53.331 38.272 51.811C40.206 49.186 40.759 43.522 39.792 40.067C38.825 35.646 36.614 34.402 34.127 34.402ZM36.891 49.324C36.615 50.705 36.2 53.193 33.713 53.193C33.022 53.193 33.022 52.916 33.022 51.396V37.027C33.022 35.507 33.022 35.369 33.713 35.369C34.68 35.369 35.371 35.231 36.2 36.889C37.581 39.514 37.581 45.869 36.891 49.324Z" fill="black"/>
<path fill-rule="evenodd" clip-rule="evenodd" d="M78.478 24.316H76.406L79.169 17.408C79.169 17.408 79.169 17.408 84.558 17.408C84.558 17.408 84.558 17.27 84.558 24.316H82.071C82.071 24.316 82.071 24.316 82.071 25.422C82.071 25.422 82.071 25.422 97.131 25.422C97.131 25.422 97.131 25.422 97.131 24.316H94.645C94.645 24.316 94.645 24.316 94.645 14.23H98.375C99.757 14.23 100.862 12.987 100.862 11.881V2.21C100.862 1.381 99.894 0 98.236 0H82.071V1.105H84.006L75.026 24.317H73.091V25.423H78.479L78.478 24.316ZM94.644 1.104H96.44C96.854 1.104 97.13 1.38 97.13 1.795V12.434C97.13 12.848 96.854 13.124 96.44 13.124H94.644V7.736V6.492V1.104ZM88.15 1.104H91.051V24.316H88.15V1.104ZM84.558 3.315V16.164H79.446L84.558 3.315Z" fill="black"/>
<path fill-rule="evenodd" clip-rule="evenodd" d="M45.733 53.194C44.904 53.055 44.766 52.641 44.766 51.258V44.627C46.7 44.764 47.115 45.316 47.667 48.91H47.943V39.375H47.667C47.115 42.969 46.7 43.383 44.766 43.658V37.027C44.766 35.507 44.904 35.231 45.457 35.369H46.977C49.741 35.507 49.879 39.375 50.017 40.344H50.432V34.402H40.622V34.955C41.451 34.955 42.004 35.922 42.004 37.442V50.983C42.004 52.503 41.451 53.469 40.622 53.469V54.022H50.57L51.261 48.081H50.846C49.602 52.225 48.22 53.469 45.733 53.194Z" fill="black"/>
<path fill-rule="evenodd" clip-rule="evenodd" d="M14.37 30.395L8.567 30.257V31.362H10.363L1.935 53.193H0V54.298H5.112V53.193H3.039L5.664 46.699C5.664 46.699 5.802 46.699 10.776 46.699C10.776 46.699 10.776 46.699 10.776 53.193H8.427C8.427 53.193 8.427 53.33 8.427 54.298C8.427 54.298 8.842 54.298 16.579 54.298V53.193H14.369V30.395H14.37ZM10.777 45.869H6.079L10.777 33.711V45.869Z" fill="black"/>
<path fill-rule="evenodd" clip-rule="evenodd" d="M118.409 30.257H109.29V31.362H111.501V53.193H109.014V54.298C110.949 54.298 113.988 54.298 117.442 54.298C117.442 54.298 117.442 54.159 117.442 53.193H115.093C115.093 53.193 115.093 53.193 115.093 43.658H118.686C119.929 43.658 120.897 42.416 120.897 41.586V32.33C120.896 31.638 120.066 30.257 118.409 30.257ZM117.441 42.002C117.441 42.416 117.165 42.691 116.751 42.691H115.093V37.58V36.336V31.362H116.751C117.165 31.362 117.441 31.638 117.441 31.914V42.002Z" fill="black"/>
<path fill-rule="evenodd" clip-rule="evenodd" d="M135.541 45.731C136.509 45.731 136.924 46.7 136.924 48.219V51.949C136.924 52.363 136.924 53.054 136.233 53.469C135.819 53.746 135.266 53.746 134.851 53.746C134.575 53.746 134.161 53.746 133.884 53.33C133.055 52.777 132.641 51.672 132.226 49.738C131.95 48.494 131.812 46.422 131.812 44.349C131.812 42.138 131.95 40.066 132.226 38.822C132.641 36.888 133.055 35.783 133.884 35.231C134.16 34.955 134.574 34.816 134.851 34.816C135.956 34.816 138.444 36.75 139.273 41.033H139.687V34.125H139.273C138.997 34.678 138.997 35.645 138.029 35.369C137.476 35.093 136.372 34.264 134.851 34.125C133.746 34.125 132.502 34.678 131.397 35.921C129.739 37.579 128.91 40.896 128.91 44.349C128.91 47.665 129.739 50.982 131.397 52.777C132.502 53.882 133.746 54.574 134.851 54.574C135.404 54.574 135.956 54.574 136.509 54.435C136.924 54.298 139.273 53.746 139.687 53.054V48.218C139.687 46.698 140.24 45.73 141.208 45.73V45.179H135.542V45.731H135.541Z" fill="black"/>
<path fill-rule="evenodd" clip-rule="evenodd" d="M149.496 34.955C150.464 34.955 150.878 35.922 150.878 37.442V47.942C150.878 53.469 148.115 53.608 147.01 53.055C145.628 52.364 145.352 50.014 145.352 47.805V37.442C145.352 35.922 145.905 34.955 146.872 34.955V34.402H141.208V34.955C142.175 34.955 142.589 35.922 142.589 37.442V48.911C142.589 50.983 143.833 54.3 146.735 54.575C149.636 54.714 151.571 52.917 151.571 47.805V37.442C151.571 35.922 152.124 34.955 152.952 34.955V34.402H149.496V34.955Z" fill="black"/>
<path fill-rule="evenodd" clip-rule="evenodd" d="M159.583 53.194C158.615 53.055 158.615 52.641 158.615 51.258V44.627C160.55 44.764 160.826 45.316 161.379 48.91H161.793V39.375H161.379C160.826 42.969 160.55 43.383 158.615 43.658V37.027C158.615 35.507 158.754 35.231 159.306 35.369H160.826C163.59 35.507 163.727 39.375 163.866 40.344H164.142V34.402H154.331V34.955C155.299 34.955 155.851 35.922 155.851 37.442V50.983C155.851 52.503 155.299 53.469 154.331 53.469V54.022H164.279L165.108 48.081H164.555C163.313 52.225 162.069 53.469 159.583 53.194Z" fill="black"/>
<path fill-rule="evenodd" clip-rule="evenodd" d="M165.386 34.402V40.205H165.8C165.939 39.514 165.939 38.133 166.768 36.613C167.735 34.954 168.84 35.369 169.254 35.369V50.982C169.254 52.502 168.701 53.468 167.873 53.468V54.021H173.399V53.468C172.57 53.468 172.017 52.501 172.017 50.982V35.369C172.431 35.369 173.537 34.954 174.504 36.613C175.333 38.133 175.333 39.513 175.471 40.205H175.747V34.402H165.386Z" fill="black"/>
<path fill-rule="evenodd" clip-rule="evenodd" d="M60.379 47.805L56.787 34.402H51.951V34.955C53.195 34.955 53.609 35.37 53.609 37.442V50.983C53.609 52.503 53.195 53.469 52.089 53.469V54.022H55.958V53.469C54.991 53.469 54.438 52.502 54.438 50.983V36.889L59.135 54.022H59.55L64.386 36.889V50.983C64.386 52.503 63.833 53.469 62.866 53.469V54.022H68.945V53.469C67.978 53.469 67.425 52.502 67.425 50.983V37.442C67.425 35.922 67.977 34.955 68.945 34.955V34.402H64.247L60.379 47.805Z" fill="black"/>
<path fill-rule="evenodd" clip-rule="evenodd" d="M93.4 52.363L90.085 44.349C91.052 43.935 91.881 43.244 92.434 41.724C93.124 39.927 92.71 37.579 92.02 36.335C91.052 34.815 89.395 34.401 88.013 34.401H82.625V34.954C83.454 34.954 84.006 35.921 84.006 37.441V50.982C84.006 52.502 83.454 53.468 82.625 53.468H82.763V54.021H88.152V53.468C87.323 53.468 86.771 52.501 86.771 50.982V44.902H87.185L90.777 54.021H94.231V53.468C93.953 53.469 93.815 53.608 93.4 52.363ZM89.808 41.725C89.255 44.35 87.597 43.936 86.768 43.936V36.614C86.768 35.784 87.182 35.37 87.458 35.37C88.84 35.094 89.393 36.061 89.668 37.167C89.946 37.856 90.085 40.344 89.808 41.725Z" fill="black"/>
<path fill-rule="evenodd" clip-rule="evenodd" d="M80.413 52.088L75.992 34.402H75.577L71.294 51.535C70.879 53.193 70.465 53.469 70.051 53.469V54.022H73.505V53.469C72.261 53.469 71.847 52.502 72.261 50.983L72.814 48.358H76.821L77.65 51.672C77.926 53.193 76.821 53.469 76.13 53.469V54.022H81.519V53.469C81.242 53.469 80.689 53.33 80.413 52.088ZM73.09 47.252L74.748 40.066L76.544 47.252H73.09Z" fill="black"/>
<path fill-rule="evenodd" clip-rule="evenodd" d="M122.277 34.955C123.382 34.955 123.935 35.922 123.935 37.442V50.983C123.935 52.503 123.382 53.469 122.277 53.469V54.022H128.218V53.469C127.113 53.469 126.698 52.502 126.698 50.983V37.442C126.698 35.922 127.112 34.955 128.218 34.955V34.402H122.277V34.955Z" fill="black"/>
<path fill-rule="evenodd" clip-rule="evenodd" d="M100.447 42.139C98.236 41.034 97.546 39.514 97.546 38.272C97.546 37.581 97.822 35.093 99.481 35.093C101.967 35.093 102.796 38.961 103.211 40.481H103.625V34.126H103.211C102.935 34.679 102.935 35.093 102.52 35.093C101.553 35.093 100.724 34.126 98.79 34.126C97.132 34.126 95.198 35.646 95.198 39.514C95.198 41.311 95.751 43.797 97.961 45.317C101.001 47.528 102.107 48.358 102.107 50.014C102.107 50.705 101.831 53.608 99.343 53.608C97.547 53.608 96.304 50.706 96.165 49.6L95.751 47.528H95.336V54.575H95.751C95.751 54.022 95.889 53.608 96.027 53.608C96.994 53.608 98.652 54.575 99.757 54.575C103.902 54.575 104.592 50.845 104.592 48.911C104.592 46.147 103.349 43.658 100.447 42.139Z" fill="black"/>
<path fill-rule="evenodd" clip-rule="evenodd" d="M0.414001 67.838C1.243 67.838 1.381 67.563 1.519 66.871L2.486 62.174C2.486 62.035 2.624 61.897 2.624 61.758C2.624 61.344 2.209 61.207 1.794 61.207V60.93H4.558V61.207C3.729 61.207 3.591 61.482 3.453 62.174L2.486 66.871C2.486 67.01 2.486 67.146 2.486 67.285C2.486 67.562 2.624 67.562 3.177 67.562H3.867C4.696 67.562 5.111 67.285 5.387 66.457H5.525L5.249 67.977H0.414001V67.838Z" fill="black"/>
<path fill-rule="evenodd" clip-rule="evenodd" d="M7.87499 64.799C8.01299 64.246 8.42799 63.416 9.11899 63.416C9.53399 63.416 9.80999 63.693 9.80999 63.969C9.80999 64.66 9.25699 64.799 8.84299 64.799H7.87499ZM9.94799 67.563C9.67099 67.7 9.53299 67.7 9.25699 67.7C8.01299 67.7 7.73699 67.011 7.73699 66.18C7.73699 65.766 7.73699 65.352 7.87499 65.075H8.97999C9.80899 65.075 10.638 64.938 10.638 64.108C10.638 63.417 9.94799 63.003 9.25699 63.003C7.46099 63.003 6.76999 64.939 6.76999 66.319C6.76999 67.563 7.45999 68.116 8.42799 68.116C9.11899 68.116 9.67099 67.977 9.94799 67.839V67.563Z" fill="black"/>
<path fill-rule="evenodd" clip-rule="evenodd" d="M16.304 64.246C16.304 64.107 16.304 63.969 16.304 63.832C16.304 63.832 16.304 63.693 16.166 63.693C16.028 63.693 15.614 64.107 15.337 64.384H15.198C15.474 63.968 16.303 63.001 16.718 63.001C16.994 63.001 17.133 63.278 17.133 63.554C17.133 63.693 17.133 63.968 17.133 64.245L16.857 65.626V65.765C17.133 64.937 17.962 63.001 19.067 63.001C19.482 63.001 19.758 63.278 19.758 63.692C19.758 63.967 19.62 64.106 19.62 64.383L19.344 65.625V65.764C19.759 64.936 20.588 63 21.693 63C22.107 63 22.246 63.277 22.246 63.691C22.246 63.83 22.246 64.105 22.246 64.382L21.555 67.007C21.555 67.144 21.555 67.282 21.555 67.282C21.555 67.421 21.555 67.421 21.693 67.421C21.831 67.421 22.246 67.007 22.522 66.73L22.66 66.869C22.384 67.144 21.555 68.113 21.14 68.113C20.864 68.113 20.725 67.974 20.725 67.697C20.725 67.422 20.725 67.144 20.725 67.008L21.416 64.383C21.416 64.244 21.416 64.106 21.416 63.967C21.416 63.83 21.416 63.692 21.14 63.692C20.449 63.692 19.067 67.008 18.93 67.975H18.101L18.791 64.383C18.791 64.244 18.791 64.106 18.791 63.967C18.791 63.83 18.791 63.692 18.653 63.692C17.962 63.692 16.857 65.764 16.304 67.975H15.475L16.304 64.246Z" fill="black"/>
<path fill-rule="evenodd" clip-rule="evenodd" d="M24.594 66.733C24.594 65.628 25.423 63.417 26.529 63.417C26.805 63.417 26.943 63.833 26.943 64.108C26.943 65.352 25.976 67.563 25.147 67.563C24.87 67.563 24.594 67.424 24.594 66.733ZM26.39 67.01C26.39 67.147 26.39 67.424 26.39 67.699C26.39 67.838 26.529 68.115 26.805 68.115C27.219 68.115 28.048 67.146 28.325 66.871L28.187 66.732C27.911 67.009 27.496 67.423 27.358 67.423C27.22 67.423 27.22 67.423 27.22 67.284C27.22 67.284 27.22 67.145 27.22 67.009L28.049 63.14H27.22L27.082 63.693C26.943 63.416 26.806 63.002 26.253 63.002C24.733 63.002 23.766 65.766 23.766 66.871C23.766 67.424 23.904 68.115 24.733 68.115C25.7 68.115 26.253 66.871 26.529 66.457L26.39 67.01Z" fill="black"/>
<path fill-rule="evenodd" clip-rule="evenodd" d="M30.811 61.069C31.087 60.792 31.225 60.655 31.364 60.655C31.502 60.655 31.64 60.792 31.778 61.069L32.331 62.311H31.916L31.225 61.622L30.12 62.311H29.706L30.811 61.069ZM31.778 66.871C31.502 67.146 30.673 68.115 30.258 68.115C29.982 68.115 29.844 67.976 29.844 67.699C29.844 67.424 29.844 67.146 29.844 67.01L30.397 64.246C30.535 64.107 30.535 63.969 30.535 63.832C30.535 63.693 30.397 63.693 30.397 63.693C30.258 63.693 29.706 64.107 29.43 64.384H29.292C29.707 63.968 30.397 63.001 30.95 63.001C31.226 63.001 31.365 63.278 31.365 63.554C31.365 63.693 31.365 63.968 31.226 64.245L30.674 67.009C30.674 67.146 30.674 67.284 30.674 67.284C30.674 67.423 30.674 67.423 30.812 67.423C30.95 67.423 31.365 67.009 31.641 66.732L31.778 66.871Z" fill="black"/>
<path fill-rule="evenodd" clip-rule="evenodd" d="M35.371 66.871C34.957 67.285 34.128 68.115 33.575 68.115C33.299 68.115 33.16 67.976 33.16 67.699C33.16 67.424 33.16 67.146 33.298 67.01L33.989 63.555H33.022L33.16 63.141C34.127 63.141 34.68 62.727 34.956 61.621H35.232L34.817 63.141H36.199V63.555H34.817L34.127 67.01C34.127 67.147 33.989 67.285 33.989 67.285C33.989 67.424 34.127 67.424 34.127 67.424C34.403 67.424 34.956 67.01 35.232 66.733L35.371 66.871Z" fill="black"/>
<path fill-rule="evenodd" clip-rule="evenodd" d="M37.72 64.246C37.72 64.107 37.72 63.969 37.72 63.832C37.72 63.832 37.72 63.693 37.582 63.693C37.444 63.693 37.029 64.107 36.753 64.384H36.615C36.891 63.968 37.582 63.001 38.135 63.001C38.411 63.001 38.55 63.278 38.55 63.554C38.55 63.693 38.55 63.968 38.55 64.245L38.411 64.936C38.55 64.52 39.102 63 39.931 63C40.346 63 40.484 63.277 40.484 63.553C40.484 63.83 40.208 64.106 39.931 64.106C39.793 64.106 39.655 63.967 39.517 63.967C39.24 63.967 38.273 65.211 37.721 67.975H36.892L37.72 64.246Z" fill="black"/>
<path fill-rule="evenodd" clip-rule="evenodd" d="M42.141 64.799C42.141 64.246 42.556 63.416 43.384 63.416C43.799 63.416 44.075 63.693 44.075 63.969C44.075 64.66 43.384 64.799 42.97 64.799H42.141ZM44.213 67.563C43.937 67.7 43.66 67.7 43.522 67.7C42.141 67.7 41.864 67.011 41.864 66.18C41.864 65.766 42.002 65.352 42.002 65.075H43.107C43.936 65.075 44.903 64.938 44.903 64.108C44.903 63.417 44.212 63.003 43.521 63.003C41.587 63.003 40.896 64.939 40.896 66.319C40.896 67.563 41.587 68.116 42.692 68.116C43.383 68.116 43.797 67.977 44.074 67.839L44.213 67.563Z" fill="black"/>
<path fill-rule="evenodd" clip-rule="evenodd" d="M50.292 66.733C50.292 65.766 50.983 63.417 52.088 63.417C52.364 63.417 52.641 63.694 52.641 64.108C52.641 65.075 51.674 67.563 50.707 67.563C50.569 67.563 50.292 67.424 50.292 66.733ZM52.089 67.01C51.951 67.147 51.951 67.424 51.951 67.699C51.951 67.838 52.089 68.115 52.366 68.115C52.919 68.115 53.748 67.146 54.024 66.871L53.885 66.732C53.609 67.009 53.195 67.423 52.918 67.423C52.918 67.423 52.78 67.423 52.78 67.284C52.78 67.284 52.78 67.145 52.918 67.009L54.161 60.654L52.365 60.791V61.068C52.78 61.068 53.056 61.068 53.056 61.482C53.056 61.621 53.056 61.757 53.056 61.896L52.78 63.554C52.642 63.279 52.365 63.001 51.813 63.001C50.432 63.001 49.326 65.765 49.326 66.87C49.326 67.423 49.464 68.114 50.293 68.114C51.26 68.114 51.951 66.731 52.089 66.317H52.227L52.089 67.01Z" fill="black"/>
<path fill-rule="evenodd" clip-rule="evenodd" d="M56.234 64.799C56.372 64.246 56.787 63.416 57.616 63.416C57.892 63.416 58.168 63.693 58.168 63.969C58.168 64.66 57.616 64.799 57.201 64.799H56.234ZM58.307 67.563C58.168 67.7 57.892 67.7 57.616 67.7C56.372 67.7 56.096 67.011 56.096 66.18C56.096 65.766 56.096 65.352 56.234 65.075H57.339C58.168 65.075 58.997 64.938 58.997 64.108C58.997 63.417 58.444 63.003 57.754 63.003C55.819 63.003 55.129 64.939 55.129 66.319C55.129 67.563 55.82 68.116 56.787 68.116C57.478 68.116 58.031 67.977 58.307 67.839V67.563Z" fill="black"/>
<path fill-rule="evenodd" clip-rule="evenodd" d="M65.767 66.871C65.491 67.146 64.8 68.115 64.247 68.115C63.971 68.115 63.832 67.976 63.832 67.699C63.832 67.424 63.832 67.146 63.832 67.01L64.937 61.897C64.937 61.758 64.937 61.622 64.937 61.483C64.937 61.069 64.661 61.069 64.108 61.069L64.246 60.792L65.904 60.655L64.66 67.01C64.66 67.147 64.66 67.285 64.66 67.285C64.66 67.424 64.66 67.424 64.798 67.424C64.936 67.424 65.351 67.01 65.627 66.733L65.767 66.871Z" fill="black"/>
<path fill-rule="evenodd" clip-rule="evenodd" d="M67.84 63.141C68.116 63.002 68.531 62.588 68.531 62.174C68.531 61.897 68.116 62.035 68.116 61.483C68.116 61.208 68.392 60.93 68.807 60.93C69.083 60.93 69.36 61.207 69.36 61.621C69.36 62.31 68.531 62.865 68.255 63.141H67.84Z" fill="black"/>
<path fill-rule="evenodd" clip-rule="evenodd" d="M71.57 61.897C71.57 61.758 71.57 61.622 71.57 61.483C71.57 61.069 71.294 61.069 70.741 61.069L70.879 60.792L72.675 60.655L71.57 65.905C71.985 64.938 72.952 63.003 73.919 63.003C74.334 63.003 74.61 63.28 74.61 63.694C74.61 63.833 74.471 64.108 74.471 64.385L73.918 67.01C73.918 67.147 73.78 67.285 73.78 67.285C73.78 67.424 73.918 67.424 73.918 67.424C74.194 67.424 74.609 67.01 74.885 66.733L75.024 66.872C74.747 67.147 73.918 68.116 73.366 68.116C73.09 68.116 72.951 67.977 72.951 67.7C72.951 67.425 72.951 67.147 73.089 67.011L73.642 64.386C73.642 64.247 73.78 64.109 73.78 63.97C73.78 63.833 73.642 63.695 73.504 63.695C72.675 63.695 71.431 66.873 71.155 67.978H70.326L71.57 61.897Z" fill="black"/>
<path fill-rule="evenodd" clip-rule="evenodd" d="M77.235 66.594C77.235 65.627 77.65 63.416 78.755 63.416C79.308 63.416 79.446 63.832 79.446 64.521C79.446 65.49 79.031 67.837 77.926 67.837C77.512 67.838 77.235 67.424 77.235 66.594ZM77.926 68.115C79.584 68.115 80.413 66.318 80.413 64.937C80.413 63.832 79.998 63.001 78.755 63.001C77.097 63.001 76.268 64.937 76.268 66.317C76.268 67.285 76.821 68.115 77.926 68.115Z" fill="black"/>
<path fill-rule="evenodd" clip-rule="evenodd" d="M82.486 64.246C82.486 64.107 82.624 63.969 82.624 63.832L82.486 63.693C82.21 63.693 81.795 64.107 81.519 64.384H81.381C81.657 63.968 82.486 63.001 83.039 63.001C83.315 63.001 83.454 63.278 83.454 63.554C83.454 63.693 83.454 63.968 83.315 64.245L83.177 64.936C83.453 64.52 84.006 63 84.835 63C85.111 63 85.25 63.277 85.25 63.553C85.25 63.83 85.112 64.106 84.835 64.106C84.558 64.106 84.42 63.967 84.282 63.967C84.006 63.967 83.177 65.211 82.624 67.975H81.794L82.486 64.246Z" fill="black"/>
<path fill-rule="evenodd" clip-rule="evenodd" d="M87.874 66.871C87.598 67.146 86.907 68.115 86.354 68.115C86.078 68.115 85.94 67.976 85.94 67.699C85.94 67.424 85.94 67.146 85.94 67.01L87.045 61.897C87.045 61.758 87.045 61.622 87.045 61.483C87.045 61.069 86.769 61.069 86.216 61.069L86.354 60.792L88.012 60.655L86.769 67.01C86.769 67.147 86.769 67.285 86.769 67.285C86.769 67.424 86.769 67.424 86.907 67.424C87.045 67.424 87.46 67.01 87.737 66.733L87.874 66.871Z" fill="black"/>
<path fill-rule="evenodd" clip-rule="evenodd" d="M89.946 66.594C89.946 65.627 90.499 63.416 91.604 63.416C92.019 63.416 92.294 63.832 92.294 64.521C92.294 65.49 91.88 67.837 90.774 67.837C90.361 67.838 89.946 67.424 89.946 66.594ZM90.775 68.115C92.295 68.115 93.262 66.318 93.262 64.937C93.262 63.832 92.709 63.001 91.604 63.001C89.946 63.001 89.117 64.937 89.117 66.317C89.118 67.285 89.532 68.115 90.775 68.115Z" fill="black"/>
<path fill-rule="evenodd" clip-rule="evenodd" d="M95.335 66.733C95.335 65.628 96.164 63.417 97.131 63.417C97.27 63.417 97.684 63.556 97.684 64.108C97.684 65.075 96.717 67.563 95.75 67.563C95.474 67.563 95.335 67.424 95.335 66.733ZM98.651 63.141H97.822V63.555C97.683 63.28 97.407 63.002 96.993 63.002C95.473 63.002 94.368 65.766 94.368 66.871C94.368 67.424 94.506 68.115 95.335 68.115C96.44 68.115 96.993 66.871 97.131 66.318H97.27L96.855 68.115C96.717 68.668 96.441 69.91 95.612 69.91C94.922 69.91 95.059 69.082 94.507 69.082C94.231 69.082 93.954 69.357 93.954 69.635C93.954 70.049 94.507 70.188 95.198 70.188C96.994 70.188 97.408 69.221 97.684 68.116L98.651 63.141Z" fill="black"/>
<path fill-rule="evenodd" clip-rule="evenodd" d="M100.862 64.799C101 64.246 101.414 63.416 102.243 63.416C102.519 63.416 102.796 63.693 102.796 63.969C102.796 64.66 102.243 64.799 101.829 64.799H100.862ZM102.934 67.563C102.795 67.7 102.519 67.7 102.243 67.7C101 67.7 100.723 67.011 100.723 66.18C100.723 65.766 100.723 65.352 100.862 65.075H101.966C102.795 65.075 103.624 64.938 103.624 64.108C103.624 63.417 103.071 63.003 102.381 63.003C100.446 63.003 99.756 64.939 99.756 66.319C99.756 67.563 100.446 68.116 101.413 68.116C102.104 68.116 102.657 67.977 102.934 67.839V67.563Z" fill="black"/>
<path fill-rule="evenodd" clip-rule="evenodd" d="M105.697 64.246C105.697 64.107 105.697 63.969 105.697 63.832C105.697 63.832 105.697 63.693 105.559 63.693C105.421 63.693 104.869 64.107 104.591 64.384H104.453C104.868 63.968 105.558 63.001 106.111 63.001C106.387 63.001 106.525 63.278 106.525 63.554C106.525 63.693 106.525 63.968 106.387 64.245L106.248 64.936C106.524 64.52 107.077 63 107.906 63C108.182 63 108.459 63.277 108.459 63.553C108.459 63.83 108.183 64.106 107.906 64.106C107.629 64.106 107.63 63.967 107.492 63.967C107.216 63.967 106.248 65.211 105.695 67.975H104.867L105.697 64.246Z" fill="black"/>
<path fill-rule="evenodd" clip-rule="evenodd" d="M111.225 66.871C110.949 67.146 110.12 68.115 109.567 68.115C109.291 68.115 109.152 67.976 109.152 67.699C109.152 67.424 109.291 67.146 109.291 67.01L109.844 64.246C109.844 64.107 109.844 63.969 109.844 63.832V63.693C109.568 63.693 109.153 64.107 108.876 64.384H108.738C109.014 63.968 109.843 63.001 110.396 63.001C110.534 63.001 110.81 63.278 110.81 63.554C110.81 63.693 110.672 63.968 110.672 64.245L110.119 67.009C110.119 67.146 109.98 67.284 109.98 67.284C109.98 67.423 110.119 67.423 110.119 67.423C110.395 67.423 110.809 67.009 111.086 66.732L111.225 66.871ZM109.98 61.483C109.98 61.208 110.256 60.93 110.671 60.93C110.947 60.93 111.224 61.207 111.224 61.483C111.224 61.759 110.948 62.036 110.671 62.036C110.257 62.035 109.98 61.758 109.98 61.483Z" fill="black"/>
<path fill-rule="evenodd" clip-rule="evenodd" d="M113.573 64.799C113.573 64.246 113.987 63.416 114.816 63.416C115.231 63.416 115.507 63.693 115.507 63.969C115.507 64.66 114.816 64.799 114.402 64.799H113.573ZM115.645 67.563C115.369 67.7 115.092 67.7 114.955 67.7C113.573 67.7 113.297 67.011 113.297 66.18C113.297 65.766 113.435 65.352 113.435 65.075H114.54C115.369 65.075 116.337 64.938 116.337 64.108C116.337 63.417 115.646 63.003 114.955 63.003C113.02 63.003 112.33 64.939 112.33 66.319C112.33 67.563 113.02 68.116 114.126 68.116C114.816 68.116 115.231 67.977 115.508 67.839L115.645 67.563Z" fill="black"/>
<path fill-rule="evenodd" clip-rule="evenodd" d="M121.725 66.733C121.725 65.766 122.416 63.417 123.522 63.417C123.798 63.417 124.074 63.694 124.074 64.108C124.074 65.075 123.107 67.563 122.14 67.563C122.001 67.563 121.725 67.424 121.725 66.733ZM123.521 67.01C123.382 67.147 123.382 67.424 123.382 67.699C123.382 67.838 123.521 68.115 123.797 68.115C124.349 68.115 125.04 67.146 125.454 66.871L125.316 66.732C125.04 67.009 124.487 67.423 124.348 67.423C124.348 67.423 124.21 67.423 124.21 67.284C124.21 67.284 124.21 67.145 124.348 67.009L125.592 60.654L123.796 60.791V61.068C124.21 61.068 124.486 61.068 124.486 61.482C124.486 61.621 124.486 61.757 124.486 61.896L124.21 63.554C124.071 63.279 123.796 63.001 123.243 63.001C121.861 63.001 120.756 65.765 120.756 66.87C120.756 67.423 120.895 68.114 121.723 68.114C122.691 68.114 123.381 66.731 123.52 66.317H123.658L123.521 67.01Z" fill="black"/>
<path fill-rule="evenodd" clip-rule="evenodd" d="M127.666 64.799C127.805 64.246 128.219 63.416 128.909 63.416C129.324 63.416 129.6 63.693 129.6 63.969C129.6 64.66 129.047 64.799 128.632 64.799H127.666ZM129.738 67.563C129.6 67.7 129.324 67.7 129.048 67.7C127.805 67.7 127.528 67.011 127.528 66.18C127.528 65.766 127.528 65.352 127.666 65.075H128.771C129.6 65.075 130.429 64.938 130.429 64.108C130.429 63.417 129.876 63.003 129.185 63.003C127.251 63.003 126.56 64.939 126.56 66.319C126.56 67.563 127.251 68.116 128.218 68.116C128.908 68.116 129.461 67.977 129.738 67.839V67.563Z" fill="black"/>
<path fill-rule="evenodd" clip-rule="evenodd" d="M132.641 67.147C132.641 65.905 133.608 63.555 134.575 63.555C134.851 63.555 134.99 63.969 134.99 64.385C134.99 65.627 134.161 67.838 133.193 67.838C132.778 67.838 132.641 67.424 132.641 67.147ZM130.153 70.188H132.916V70.049C132.502 70.049 132.088 70.049 132.088 69.496C132.088 69.357 132.088 69.221 132.226 69.082L132.365 67.699H132.503C132.642 67.976 132.779 68.115 133.332 68.115C134.852 68.115 135.957 65.627 135.957 64.246C135.957 63.416 135.542 63.002 134.99 63.002C134.022 63.002 133.193 64.385 133.055 64.66L133.193 64.246C133.193 63.969 133.193 63.693 133.193 63.555C133.193 63.28 133.055 63.002 132.779 63.002C132.226 63.002 131.536 63.969 131.121 64.385H131.397C131.536 64.108 132.088 63.694 132.226 63.694C132.365 63.694 132.365 63.833 132.365 63.833C132.365 63.97 132.365 64.108 132.365 64.247L131.397 69.083C131.259 69.774 130.983 70.05 130.154 70.05V70.188H130.153Z" fill="black"/>
<path fill-rule="evenodd" clip-rule="evenodd" d="M140.377 65.766C139.963 67.01 138.996 68.116 138.167 68.116C137.752 68.116 137.476 67.839 137.476 67.286C137.476 67.147 137.615 66.733 137.615 66.458L138.168 64.247C138.168 64.108 138.168 63.97 138.168 63.833V63.694C137.892 63.694 137.477 64.108 137.2 64.385H137.062C137.338 63.969 138.167 63.002 138.72 63.002C138.996 63.002 139.134 63.279 139.134 63.555C139.134 63.694 138.996 63.969 138.996 64.246L138.443 66.732C138.443 66.871 138.304 67.146 138.304 67.146C138.304 67.285 138.443 67.423 138.58 67.423C139.271 67.423 140.791 65.073 140.929 63.14H141.758L140.929 67.009C140.929 67.146 140.929 67.284 140.929 67.284C140.929 67.423 140.929 67.423 141.068 67.423C141.207 67.423 141.758 67.009 142.035 66.732L142.174 66.871C141.759 67.146 141.069 68.115 140.516 68.115C140.24 68.115 140.101 67.976 140.101 67.699C140.101 67.424 140.101 67.146 140.24 67.01L140.377 65.766Z" fill="black"/>
<path fill-rule="evenodd" clip-rule="evenodd" d="M145.628 66.871C145.213 67.146 144.523 68.115 143.97 68.115C143.694 68.115 143.556 67.976 143.556 67.699C143.556 67.424 143.556 67.146 143.694 67.01L144.247 64.246C144.247 64.107 144.247 63.969 144.247 63.832C144.247 63.832 144.247 63.693 144.108 63.693C143.97 63.693 143.556 64.107 143.28 64.384H143.141C143.417 63.968 144.246 63.001 144.661 63.001C144.937 63.001 145.076 63.278 145.076 63.554C145.076 63.693 145.076 63.968 145.076 64.245L144.523 67.009C144.384 67.146 144.384 67.284 144.384 67.284C144.384 67.423 144.523 67.423 144.523 67.423C144.661 67.423 145.213 67.009 145.49 66.732L145.628 66.871ZM144.384 61.483C144.384 61.208 144.66 60.93 144.937 60.93C145.352 60.93 145.628 61.207 145.628 61.483C145.628 61.759 145.352 62.036 144.937 62.036C144.66 62.035 144.384 61.758 144.384 61.483Z" fill="black"/>
<path fill-rule="evenodd" clip-rule="evenodd" d="M149.772 64.385C149.772 63.832 149.496 63.416 148.805 63.416C148.391 63.416 147.976 63.693 147.976 64.246C147.976 65.213 149.772 65.074 149.772 66.457C149.772 67.699 148.805 68.115 147.562 68.115C147.009 68.115 146.594 67.976 146.457 67.976L146.595 66.732H146.871C146.871 67.146 147.01 67.837 147.839 67.837C148.392 67.837 148.943 67.423 148.943 66.732C148.943 65.765 147.147 65.765 147.147 64.521C147.147 63.554 147.976 63.001 148.943 63.001C149.496 63.001 149.911 63.14 150.187 63.278L150.048 64.383H149.772V64.385Z" fill="black"/>
<path fill-rule="evenodd" clip-rule="evenodd" d="M153.779 67.838C154.608 67.838 154.747 67.563 155.023 66.871L155.713 63.416C155.713 63.141 155.713 62.865 155.713 62.588C155.713 62.311 155.574 62.174 155.16 62.174C155.022 62.174 154.884 62.174 154.746 62.174V62.035L156.266 61.621H156.819L155.851 66.871C155.713 67.01 155.713 67.146 155.713 67.285C155.713 67.699 156.128 67.838 156.403 67.838V67.977H153.64L153.779 67.838Z" fill="black"/>
<path fill-rule="evenodd" clip-rule="evenodd" d="M159.859 63.416C159.859 62.865 160.134 61.896 161.102 61.896C161.517 61.896 161.931 62.173 161.931 62.865C161.931 63.693 161.517 64.385 160.687 64.385C160.135 64.385 159.859 64.108 159.859 63.416ZM160.135 68.115C161.518 68.115 162.346 67.285 162.346 66.041C162.346 65.074 161.793 64.799 161.379 64.66C162.208 64.521 162.899 64.107 162.899 62.865C162.899 61.896 162.209 61.482 161.241 61.482C159.86 61.482 158.892 62.173 158.892 63.279C158.892 64.107 159.307 64.384 159.721 64.66C158.892 64.66 158.201 65.49 158.201 66.594C158.201 67.699 158.892 68.115 160.135 68.115ZM159.168 66.733C159.168 65.766 159.583 64.799 160.411 64.799C160.964 64.799 161.517 65.213 161.517 65.904C161.517 66.871 161.102 67.699 160.134 67.699C159.444 67.699 159.168 67.285 159.168 66.733Z" fill="black"/>
<path fill-rule="evenodd" clip-rule="evenodd" d="M167.597 62.035H165.662C164.833 62.035 164.694 62.449 164.557 63.002H164.281L164.557 61.621H168.564V62.035L164.834 67.976H163.867L167.597 62.035Z" fill="black"/>
<path fill-rule="evenodd" clip-rule="evenodd" d="M170.083 64.385C170.222 64.246 170.498 64.108 171.188 64.108C172.293 64.108 172.846 64.799 172.846 65.766C172.846 66.871 172.017 68.116 170.221 68.116C169.253 68.116 168.563 67.839 168.286 67.839L168.425 67.425C168.563 67.425 169.115 67.7 169.806 67.7C171.05 67.7 171.879 66.872 171.879 65.766C171.879 64.938 171.326 64.522 170.774 64.522C170.083 64.522 169.806 64.938 169.669 65.075H169.116L169.945 61.622H173.26L173.122 62.036H170.635L170.083 64.385Z" fill="black"/>
</svg>
